<svg xmlns="http://www.w3.org/2000/svg" viewBox="0 0 155.71 33.41"><defs><style>.cls-1{fill:#fff;}.cls-2{fill:#22b373;}</style></defs><title>Recurso 3</title><g id="Capa_2" data-name="Capa 2"><g id="Capa_5" data-name="Capa 5"><path class="cls-1" d="M0,.53H4.18V29.38H18v3.5H0Z"/><path class="cls-1" d="M48.43,16.37c0,11.14-6.77,17-15,17-8.54,0-14.54-6.62-14.54-16.42,0-10.27,6.38-17,15-17C42.72,0,48.43,6.77,48.43,16.37Zm-25.11.53c0,6.91,3.74,13.1,10.32,13.1S44,23.91,44,16.56C44,10.13,40.66,3.41,33.7,3.41S23.33,9.79,23.33,16.9Z"/><path class="cls-1" d="M78.48,31.44a30.15,30.15,0,0,1-9.94,1.78c-4.9,0-8.93-1.25-12.1-4.27-2.78-2.69-4.51-7-4.51-12C52,7.25,58.61.19,69.46.19a20,20,0,0,1,8.06,1.49l-1,3.41A16.77,16.77,0,0,0,69.36,3.7c-7.87,0-13,4.9-13,13S61.3,29.76,68.83,29.76a13.62,13.62,0,0,0,5.57-.86V19.25H67.82V15.89H78.48Z"/><path class="cls-1" d="M112.51,16.37c0,11.14-6.77,17-15,17-8.54,0-14.54-6.62-14.54-16.42,0-10.27,6.38-17,15-17C106.8,0,112.51,6.77,112.51,16.37Zm-25.11.53c0,6.91,3.74,13.1,10.32,13.1s10.37-6.1,10.37-13.44c0-6.43-3.36-13.15-10.32-13.15S87.41,9.79,87.41,16.9Z"/><path class="cls-2" d="M121.81,32.56a5.83,5.83,0,0,1-2.5.5A4.14,4.14,0,0,1,115,28.62,4.43,4.43,0,0,1,119.65,24a5.3,5.3,0,0,1,2.2.45l-.36,1.22a3.68,3.68,0,0,0-1.84-.41,3,3,0,0,0-3.08,3.29,3,3,0,0,0,3,3.26,4.5,4.5,0,0,0,1.94-.43Z"/><path class="cls-2" d="M123.67,20.1h1.58v5.44h0a2.94,2.94,0,0,1,1.13-1.12A3.26,3.26,0,0,1,128,24c1.17,0,3,.72,3,3.73v5.19H129.5v-5c0-1.4-.52-2.59-2-2.59a2.28,2.28,0,0,0-2.12,1.58,1.92,1.92,0,0,0-.11.76v5.26h-1.58Z"/><path class="cls-2" d="M140.95,30.51c0,.9,0,1.69.07,2.38h-1.4l-.09-1.42h0a3.28,3.28,0,0,1-2.88,1.62c-1.37,0-3-.76-3-3.82v-5.1h1.58V29c0,1.66.5,2.77,1.94,2.77a2.29,2.29,0,0,0,2.09-1.44,2.32,2.32,0,0,0,.14-.81V24.17h1.58Z"/><path class="cls-2" d="M143.57,20.1h1.58V32.88h-1.58Z"/><path class="cls-2" d="M155.71,28.45a4.26,4.26,0,0,1-4.34,4.63,4.14,4.14,0,0,1-4.18-4.48c0-2.92,1.91-4.63,4.32-4.63S155.71,25.79,155.71,28.45Zm-6.91.09c0,1.91,1.1,3.35,2.65,3.35s2.65-1.42,2.65-3.39c0-1.48-.74-3.35-2.61-3.35S148.79,26.89,148.79,28.54Z"/></g></g></svg>